<svg width="86" height="57" viewBox="0 0 86 57" fill="none" xmlns="http://www.w3.org/2000/svg">
<g id="246911 1" clip-path="url(#clip0_79_560)">
<g id="surface1">
<path id="Vector" d="M73.1224 20.2602V18.0229H72.2676V17.6324H74.4245V18.0229H73.5631V20.2602H73.1224ZM74.7222 20.2602V17.6324H75.3691L76.0377 19.7323L76.6813 17.6324H77.3165V20.2602H76.9141V18.0543L76.2356 20.2602H75.8348L75.1263 18.0229V20.2602H74.7222Z" fill="#231F20"/>
<path id="Vector_2" d="M16.9211 18.9148C16.9211 23.3348 13.3239 26.9175 8.88198 26.9175C4.44168 26.9175 0.837891 23.3348 0.837891 18.9148C0.837891 14.4948 4.44168 10.9105 8.88198 10.9105C13.3239 10.9105 16.9211 14.4948 16.9211 18.9148Z" fill="#939598"/>
<path id="Vector_3" d="M51.7308 18.9148C51.7308 23.3348 48.1319 26.9175 43.6883 26.9175C39.2464 26.9175 35.6426 23.3348 35.6426 18.9148C35.6426 14.4948 39.2464 10.9105 43.6883 10.9105C48.1319 10.9105 51.7308 14.4948 51.7308 18.9148Z" fill="#939598"/>
<path id="Vector_4" d="M16.9211 38.9067C16.9211 43.3283 13.3239 46.9094 8.88198 46.9094C4.44168 46.9094 0.837891 43.3283 0.837891 38.9067C0.837891 34.4916 4.44168 30.904 8.88198 30.904C13.3239 30.904 16.9211 34.4916 16.9211 38.9067Z" fill="#939598"/>
<path id="Vector_5" d="M34.3287 28.9116C34.3287 33.3333 30.7249 36.9159 26.2846 36.9159C21.8443 36.9159 18.2422 33.3333 18.2422 28.9116C18.2422 24.4916 21.8443 20.9089 26.2846 20.9089C30.7249 20.9089 34.3287 24.4916 34.3287 28.9116Z" fill="#939598"/>
<path id="Vector_6" d="M34.3287 8.91645C34.3287 13.3365 30.7249 16.9191 26.2846 16.9191C21.8443 16.9191 18.2422 13.3365 18.2422 8.91645C18.2422 4.49809 21.8443 0.912109 26.2846 0.912109C30.7249 0.912109 34.3287 4.49809 34.3287 8.91645Z" fill="#939598"/>
<g id="Clip path group">
<mask id="mask0_79_560" style="mask-type:luminance" maskUnits="userSpaceOnUse" x="17" y="40" width="18" height="17">
<g id="clip1">
<path id="Vector_7" d="M17.8672 40.7336H34.4709V56.9127H17.8672V40.7336Z" fill="white"/>
</g>
</mask>
<g mask="url(#mask0_79_560)">
<g id="Group">
<path id="Vector_8" d="M34.3287 48.9084C34.3287 53.3267 30.7249 56.9127 26.2846 56.9127C21.8443 56.9127 18.2422 53.3267 18.2422 48.9084C18.2422 44.4867 21.8443 40.9057 26.2846 40.9057C30.7249 40.9057 34.3287 44.4867 34.3287 48.9084Z" fill="#939598"/>
</g>
</g>
</g>
<g id="Clip path group_2">
<mask id="mask1_79_560" style="mask-type:luminance" maskUnits="userSpaceOnUse" x="35" y="30" width="51" height="18">
<g id="clip2">
<path id="Vector_9" d="M35.3223 30.5664H85.313V47.0881H35.3223V30.5664Z" fill="white"/>
</g>
</mask>
<g mask="url(#mask1_79_560)">
<g id="Group_2">
<path id="Vector_10" d="M43.6635 46.8564C39.2199 46.8564 35.6211 43.2721 35.6211 38.8521C35.6211 34.4304 39.2199 30.8494 43.6635 30.8494H77.2684C81.7137 30.8494 85.3142 34.4304 85.3142 38.8521C85.3142 43.2721 81.7137 46.8564 77.2684 46.8564H43.6635Z" fill="#231F20"/>
</g>
</g>
</g>
<path id="Vector_11" d="M46.0074 37.1112C45.6781 36.5403 45.151 36.206 44.3228 36.206C42.9391 36.206 42.1475 37.3031 42.1475 38.852C42.1475 40.3546 42.9541 41.4981 44.3361 41.4981C45.1626 41.4981 45.6515 41.1787 46.1405 40.4374L47.6937 41.2714C47.0618 42.4513 45.9575 43.1546 44.2795 43.1546C41.8698 43.1546 40.25 41.4849 40.25 38.852C40.25 36.3119 41.9363 34.5512 44.3477 34.5512C46.0856 34.5512 47.1449 35.314 47.7203 36.398L46.0074 37.1112Z" fill="white"/>
<path id="Vector_12" d="M55.5364 37.1112C55.2055 36.5403 54.68 36.206 53.8484 36.206C52.4648 36.206 51.6765 37.3031 51.6765 38.852C51.6765 40.3546 52.4798 41.4981 53.8651 41.4981C54.6949 41.4981 55.1805 41.1787 55.6695 40.4374L57.2227 41.2714C56.5924 42.4513 55.4865 43.1546 53.8102 43.1546C51.3988 43.1546 49.7773 41.4849 49.7773 38.852C49.7773 36.3119 51.4637 34.5512 53.8751 34.5512C55.6162 34.5512 56.6706 35.314 57.251 36.398L55.5364 37.1112Z" fill="white"/>
<path id="Vector_13" d="M64.3334 34.6654L60.3438 34.6803V43.0255H62.1914V41.0364L64.3334 41.0232C66.0962 41.0232 67.5297 39.6017 67.5297 37.8476C67.5297 36.0918 66.0962 34.6654 64.3334 34.6654ZM63.8794 39.413H62.1914V36.2921H63.8794C64.7524 36.2921 65.4559 36.9772 65.4559 37.8476C65.4559 38.7131 64.7524 39.413 63.8794 39.413Z" fill="white"/>
</g>
</g>
<defs>
<clipPath id="clip0_79_560">
<rect width="84.4746" height="56" fill="white" transform="translate(0.837891 0.912109)"/>
</clipPath>
</defs>
</svg>
