<svg width="57" height="57" viewBox="0 0 57 57" fill="none" xmlns="http://www.w3.org/2000/svg">
<g id="arcticons:my-vodafone">
<path id="Vector" d="M28.6868 3.82877C33.6479 3.82877 38.4975 5.29988 42.6224 8.05607C46.7473 10.8123 49.9623 14.7297 51.8608 19.3131C53.7593 23.8965 54.2561 28.9399 53.2882 33.8056C52.3204 38.6713 49.9314 43.1407 46.4234 46.6487C42.9155 50.1567 38.4461 52.5456 33.5804 53.5135C28.7147 54.4813 23.6713 53.9846 19.0879 52.0861C14.5045 50.1876 10.587 46.9726 7.83082 42.8476C5.07463 38.7227 3.60352 33.8731 3.60352 28.9121C3.60661 22.2605 6.2503 15.8823 10.9537 11.1789C15.657 6.47555 22.0353 3.83186 28.6868 3.82877Z" fill="white"/>
<path id="Vector_2" d="M30.7766 16.5571C30.8062 16.0678 30.9289 15.5887 31.1383 15.1455C32.4099 12.1821 36.8549 7.80712 40.2033 6.64045V6.54712C24.4883 6.54712 16.1699 16.2888 16.1699 28.9121C16.167 31.305 16.8486 33.6488 18.1345 35.6669C19.4203 37.6849 21.2566 39.2931 23.4267 40.3014C25.5967 41.3097 28.01 41.6762 30.3816 41.3576C32.7531 41.039 34.9841 40.0485 36.8111 38.5032C38.638 36.9579 39.9848 34.9221 40.6924 32.6362C41.4 30.3503 41.4389 27.9097 40.8044 25.6025C40.17 23.2952 38.8888 21.2176 37.1119 19.6148C35.3351 18.0121 33.1368 16.9511 30.7766 16.5571Z" fill="#E60000"/>
</g>
</svg>
