<svg width="85" height="57" viewBox="0 0 85 57" fill="none" xmlns="http://www.w3.org/2000/svg">
<g id="Payment Method/Webmoney">
<rect x="0.5625" y="1.41211" width="83" height="55" rx="7.5" fill="white"/>
<rect x="0.5625" y="1.41211" width="83" height="55" rx="7.5" stroke="#CCCCCC"/>
<g id="Vector">
<path fill-rule="evenodd" clip-rule="evenodd" d="M31.2894 38.4064C31.6557 38.2162 32.2783 37.9665 32.9378 37.9665C34.4517 37.9665 35.2699 38.9887 35.2699 40.8909C35.2699 43.113 34.1714 44.1948 32.4007 44.1948C31.7533 44.1948 30.7521 43.9927 30.0194 43.6118V35.3162L31.2894 35.0189V38.4064ZM31.2774 43.1723C31.6678 43.3388 32.0954 43.3623 32.4008 43.3623C33.3043 43.3623 33.9881 42.8158 33.9881 40.8909C33.9881 39.381 33.4264 38.8937 32.6083 38.8937C32.1196 38.8937 31.7659 39.0245 31.2774 39.286V43.1723Z" fill="#0068A3"/>
<path d="M18.272 38.1208H18.3575L20.0178 44.052H21.3365L23.3148 35.6247H21.8861L20.6406 41.9125H20.5556L18.8579 35.6247H17.7712L16.1839 41.9125H16.0984L14.7307 35.6247H13.3633L15.3415 44.052H16.6599L18.272 38.1208Z" fill="#0068A3"/>
<path fill-rule="evenodd" clip-rule="evenodd" d="M28.7257 43.6476V42.7443C28.0541 43.1366 27.4438 43.3623 26.7845 43.3623C25.5267 43.3623 24.9285 42.7321 24.9285 41.3061H28.9088V40.8665C28.9088 38.9294 27.9685 37.9665 26.4426 37.9665C24.611 37.9665 23.6708 39.274 23.6708 41.0803C23.6708 42.9585 24.5132 44.1947 26.5644 44.1947C27.4438 44.1947 28.1763 43.957 28.7257 43.6476ZM27.7488 40.51H24.9532C25.0871 39.3217 25.6607 38.7629 26.406 38.7629C27.0653 38.7629 27.6883 39.2618 27.7488 40.51Z" fill="#0068A3"/>
<path d="M40.887 42.269H40.8256L38.0905 35.6247H36.6131V44.052H37.7121V38.0854H37.8219L40.3132 44.052H41.0943L43.5854 37.9427H43.6955V44.052H45.0141V35.6247H43.4998L40.887 42.269Z" fill="#0068A3"/>
<path fill-rule="evenodd" clip-rule="evenodd" d="M46.3575 41.0803C46.3575 39.0003 47.5297 37.9665 49.1414 37.9665C50.7534 37.9665 51.9258 39.0003 51.9258 41.0803C51.9258 43.113 50.8145 44.1947 49.1414 44.1947C47.4684 44.1947 46.3575 43.113 46.3575 41.0803ZM50.6433 41.0803C50.6433 39.476 49.9715 38.7987 49.1413 38.7987C48.3354 38.7987 47.6394 39.476 47.6394 41.0803C47.6394 42.7092 48.2747 43.3623 49.1413 43.3623C50.0082 43.3623 50.6433 42.7092 50.6433 41.0803Z" fill="#0068A3"/>
<path d="M56.1985 37.9665C54.795 37.9665 53.6346 38.525 53.0852 38.846V44.052H54.3553V39.3452C54.7336 39.1317 55.3565 38.9172 55.8452 38.9172C56.4678 38.9172 56.9435 39.0837 56.9435 40.0227V44.052H58.2134V39.749C58.2134 38.525 57.6644 37.9665 56.1985 37.9665Z" fill="#0068A3"/>
<path fill-rule="evenodd" clip-rule="evenodd" d="M64.4038 42.7443V43.6476C63.8547 43.957 63.1224 44.1947 62.2428 44.1947C60.1918 44.1947 59.3491 42.9585 59.3491 41.0803C59.3491 39.274 60.2896 37.9665 62.121 37.9665C63.6476 37.9665 64.5881 38.9294 64.5881 40.8665V41.3061H60.6073C60.6073 42.7321 61.2055 43.3623 62.463 43.3623C63.1224 43.3623 63.7329 43.1366 64.4038 42.7443ZM60.6316 40.51H63.4276C63.367 39.2618 62.7437 38.7629 62.0844 38.7629C61.3393 38.7629 60.7662 39.3217 60.6316 40.51Z" fill="#0068A3"/>
<path d="M70.6443 38.1685H69.3377L67.9452 42.5421H67.8725L66.3096 38.1685H64.9663L67.3108 44.1113C67.0173 44.9906 66.505 45.633 65.6747 45.633V46.6071C67.0782 46.6071 67.8232 45.7518 68.434 44.1113L70.6443 38.1685Z" fill="#0068A3"/>
<path d="M41.1851 10.7121C42.8654 10.7121 44.4568 11.093 45.8742 11.7692C46.0968 11.872 46.3188 11.9851 46.5415 12.11L45.5563 12.9683L44.0761 11.4785L41.5779 13.6475L40.0941 12.0711L35.4404 16.1542L38.4238 19.3546L37.2514 20.3584L40.1899 23.5636L39.0244 24.5651L43.2235 29.1146L45.7161 26.8809L47.8711 29.2746C47.4425 29.5989 46.9756 29.9042 46.4611 30.1863C44.9028 31.0513 43.1017 31.5465 41.1851 31.5465C35.2907 31.5465 30.4833 26.8664 30.4833 21.1296C30.4833 15.3916 35.2907 10.7121 41.1851 10.7121Z" fill="#0068A3"/>
<path d="M39.2347 20.471L41.7795 18.2403L44.071 20.718L41.5264 22.9479L39.2347 20.471Z" fill="#0068A3"/>
<path d="M43.5894 22.5212L41.0443 24.7513L43.3363 27.229L45.8812 24.9983L43.5894 22.5212Z" fill="#0068A3"/>
<path d="M37.4138 16.2408L39.9586 14.0107L42.2495 16.4878L39.7047 18.7179L37.4138 16.2408Z" fill="#0068A3"/>
<path d="M43.9924 13.3679L42.0838 15.0403L43.8022 16.8987L45.7108 15.2257L43.9924 13.3679Z" fill="#0068A3"/>
<path d="M45.4749 22.7022L47.3842 21.0291L49.1026 22.8874L47.194 24.56L45.4749 22.7022Z" fill="#0068A3"/>
<path d="M49.0622 24.7816L47.154 26.4549L48.8724 28.312L50.781 26.6394L49.0622 24.7816Z" fill="#0068A3"/>
<path d="M47.9227 17.8541L49.1951 16.739L50.3405 17.9775L49.0688 19.0925L47.9227 17.8541Z" fill="#0068A3"/>
<path d="M47.5695 13.0591L46.2971 14.174L47.4425 15.4126L48.7151 14.2976L47.5695 13.0591Z" fill="#0068A3"/>
<path d="M49.5494 21.5341L50.8218 20.4189L51.9675 21.6572L50.695 22.7724L49.5494 21.5341Z" fill="#0068A3"/>
<path d="M45.7514 17.1033L43.843 18.7765L45.5618 20.6337L47.4698 18.9611L45.7514 17.1033Z" fill="#0068A3"/>
</g>
</g>
</svg>
