<svg width="57" height="57" viewBox="0 0 57 57" fill="none" xmlns="http://www.w3.org/2000/svg">
<g id="simple-icons:binance" clip-path="url(#clip0_148_524)">
<path id="Vector" d="M38.8518 33.3921L45.1938 39.7295L28.0368 56.8865L10.8798 39.7318L17.2195 33.3921L28.0368 44.2655L38.8518 33.3921ZM49.6715 22.5748L56.0625 28.9121L49.7275 35.2495L43.3878 28.9121L49.6715 22.5748ZM28.0368 22.5748L34.3742 28.8561L28.0345 35.1958L21.6972 28.9121L28.0368 22.5748ZM6.39983 22.5748L12.6858 28.9121L6.4045 35.1935L0.0625 28.9121L6.39983 22.5748ZM28.0392 0.940125L45.1892 18.0388L38.8495 24.3738L28.0392 13.5588L17.2218 24.4321L10.8822 18.0948L28.0392 0.940125Z" fill="#F3BA2F"/>
</g>
<defs>
<clipPath id="clip0_148_524">
<rect width="56" height="56" fill="white" transform="translate(0.0625 0.912109)"/>
</clipPath>
</defs>
</svg>
