<svg width="273" height="57" viewBox="0 0 273 57" fill="none" xmlns="http://www.w3.org/2000/svg">
<path fill-rule="evenodd" clip-rule="evenodd" d="M10.8921 37.454L10.8942 42.5649V43.8356C10.8985 48.548 10.9028 53.8937 10.8921 55.1515C10.8921 56.3038 10.3299 56.8594 9.18843 56.8788C6.92267 56.8982 4.63752 56.8982 2.37175 56.8788C1.20871 56.8788 0.6875 56.3231 0.6875 55.1515V2.57579C0.6875 1.44291 1.18933 0.947542 2.33083 0.947542C4.2843 0.947542 6.23777 0.938927 8.18908 0.930312H8.19554C12.8563 0.908774 17.5171 0.887237 22.1778 0.98631C31.6975 1.18661 38.7769 8.18852 39.1969 17.6134C39.4166 22.6317 38.456 27.2968 35.1694 31.264C31.8396 35.2916 27.4093 37.2364 22.2187 37.4346C19.3585 37.553 13.5391 37.4841 11.549 37.4604L10.8921 37.454ZM10.9308 29.1016L14.0689 29.0973C16.115 29.093 18.1287 29.0887 20.1533 29.1016C22.7378 29.1232 24.8442 28.1281 26.4466 26.166C28.932 23.1292 29.5739 19.6401 28.5724 15.9076C27.4309 11.6604 24.183 9.28048 19.7721 9.28048H10.9524C10.9308 15.927 10.9308 22.4551 10.9308 29.1016ZM74.0105 55.033C74.5317 56.3038 75.3544 57.0167 76.8362 56.8982C77.7602 56.8185 81.6477 56.8788 82.6514 56.8982C84.5359 56.8982 85.1368 56.0044 84.355 54.2986C76.4248 36.9909 68.499 19.6767 60.5796 2.35611C60.1402 1.38476 59.5371 1.02723 58.4947 1.04662C57.4932 1.06815 57.0517 1.62167 56.6705 2.4358C52.5921 11.2687 48.5086 20.0991 44.4198 28.9272L43.9524 29.9394L43.9244 29.9998L43.2051 31.5569C38.204 42.3646 33.6854 52.1298 32.6538 54.3804C31.9129 55.9656 32.5353 56.8788 34.2777 56.8788H40.0929C41.8374 56.8788 42.3974 56.5213 43.0586 54.934L43.6294 53.5857L43.946 52.8362C44.758 50.9236 45.5678 49.0111 46.3474 47.077C46.6274 46.3835 46.9677 46.0863 47.7905 46.0863C54.7256 46.125 61.6392 46.1057 68.5744 46.0863H69.242C69.9808 46.0863 70.362 46.2629 70.642 46.9779C71.3807 48.8173 72.1561 50.648 72.9314 52.4765L72.953 52.5239L73.0111 52.6639L73.065 52.791L74.0126 55.0309L74.0105 55.033ZM50.6765 37.6521H66.3538C63.7044 31.8966 61.0646 26.1367 58.4344 20.3724C55.8352 26.1264 53.2493 31.8863 50.6765 37.6521ZM113.879 2.23765C109.829 8.19642 105.759 14.1423 101.671 20.0752C101.546 19.9029 100.084 17.7728 98.1348 14.9384C95.2103 10.6806 92.2798 6.42687 89.3432 2.17735C89.0222 1.72075 88.4213 1.14569 87.9217 1.12631C85.1818 1.02324 82.4393 1.00959 79.6986 1.08538C78.5958 1.10692 78.0359 2.15796 78.4752 3.16808C78.5657 3.39853 83.4655 10.6955 88.4343 18.0937L88.4537 18.1217C91.1933 22.201 93.9544 26.3103 95.9359 29.2782C96.2589 29.7693 96.4312 30.3422 96.4377 30.9259C96.4506 38.9228 96.4571 46.9198 96.4571 54.9146C96.4571 56.3834 96.9374 56.8788 98.4213 56.8788H104.536C106.22 56.8788 106.681 56.4222 106.681 54.7746C106.687 46.9499 106.681 39.121 106.662 31.2834C106.638 30.4329 106.892 29.5979 107.383 28.9035C113.103 20.565 118.81 12.2184 124.506 3.86375C124.947 3.22839 125.307 2.61456 124.906 1.8392C124.506 1.04662 123.743 1.04662 123.002 1.04662H121.919L121.045 1.05308C119.425 1.06169 117.801 1.06815 116.186 1.02723C115.143 1.00569 114.463 1.36537 113.881 2.23765H113.879ZM272.063 47.9299C272.017 52.8836 267.94 56.8724 262.941 56.8508C257.942 56.8293 253.902 52.806 253.9 47.8502C253.932 45.4637 254.903 43.186 256.603 41.5111C258.304 39.8362 260.596 38.8993 262.982 38.9034C264.176 38.8983 265.359 39.1284 266.464 39.5808C267.568 40.0331 268.573 40.6988 269.42 41.5397C270.263 42.3757 270.931 43.3714 271.385 44.4687C271.839 45.5659 272.069 46.7426 272.063 47.9299ZM270.96 48.0096C270.818 52.414 267.251 55.8493 262.86 55.7675C261.809 55.7544 260.771 55.5339 259.805 55.1184C258.84 54.703 257.966 54.1008 257.234 53.3466C256.505 52.5961 255.935 51.7072 255.555 50.7325C255.176 49.7578 254.995 48.717 255.024 47.6714C255.104 43.3661 258.752 39.9351 263.202 40.0148C267.512 40.0923 271.08 43.7624 270.96 48.0096ZM264.464 48.645L265.326 49.8661C265.843 50.5941 266.346 51.3092 266.85 52.0371C265.948 52.3947 265.446 52.1168 265.087 51.4233C264.948 51.1655 264.791 50.9185 264.615 50.6846C264.479 50.4907 264.341 50.2969 264.225 50.0923C263.523 48.9012 262.521 48.5071 261.076 48.8646V52.1168C260.742 52.133 260.408 52.1596 260.075 52.1965V44.5183C260.508 44.5183 260.938 44.5119 261.365 44.5076C262.344 44.4829 263.324 44.493 264.303 44.5377C265.466 44.598 266.107 45.2915 266.228 46.3253C266.351 47.3376 265.849 48.1087 264.766 48.5243C264.671 48.5784 264.57 48.619 264.464 48.645ZM261.992 47.7985C261.693 47.7946 261.394 47.7924 261.096 47.7921V45.3518C261.386 45.3518 261.675 45.3475 261.959 45.3454C262.657 45.3368 263.336 45.3281 264.003 45.3712C264.727 45.4294 265.207 45.8666 265.188 46.601C265.166 47.2773 264.766 47.7318 264.064 47.7727C263.383 47.8157 262.702 47.8071 261.992 47.7985Z" fill="#58B1DC"/>
<path fill-rule="evenodd" clip-rule="evenodd" d="M238.938 34.5399C239.218 35.0762 239.459 35.5522 239.7 36.0109C242.909 41.9984 246.119 47.9945 249.328 53.9949C249.528 54.3051 249.683 54.6411 249.786 54.9921C250.028 55.9075 249.485 56.7044 248.544 56.7238C245.737 56.7625 242.929 56.7431 240.123 56.7431C239.28 56.7431 239.02 56.1056 238.74 55.509C235.591 49.0822 232.423 42.6553 229.315 36.2112C228.934 35.4144 228.492 35.0762 227.57 35.0956C225.431 35.1553 223.291 35.1553 221.152 35.0956C220.271 35.0741 220.011 35.3756 220.011 36.25C220.032 42.3581 220.032 48.4468 220.032 54.5549C220.032 56.4632 219.75 56.7431 217.846 56.7431H212.031C210.487 56.7431 210.067 56.3447 210.067 54.8134V2.78473C210.067 1.41062 210.528 0.932483 211.91 0.932483C219.231 0.932483 226.547 0.893715 233.866 0.932483C242.046 0.975558 248.723 6.28676 250.168 14.1049C251.712 22.4228 248.242 30.101 240.101 33.9821C239.706 34.1517 239.318 34.3378 238.938 34.5399ZM220.192 26.9996C220.633 26.9996 228.893 26.978 232.703 26.9996C234.182 27.0083 235.621 26.5249 236.795 25.6255C239.802 23.3963 241.206 19.1383 240.161 15.38C239.059 11.3804 236.134 9.15127 231.981 9.15127H220.192V26.9996ZM140.039 9.15127V24.8092H158.766C160.351 24.8092 160.812 25.2679 160.812 26.7993V31.1757C160.812 32.5498 160.332 33.028 158.947 33.028H140.058V48.6859H162.537C164.26 48.6859 164.641 49.0628 164.641 50.775V54.9534C164.641 56.4438 164.181 56.9025 162.677 56.9025C153.192 56.9025 132.46 56.9241 131.598 56.9025C130.608 56.8853 130.099 56.5084 129.955 55.6835C129.933 55.5564 129.914 20.3724 129.914 3.26071C129.914 1.27493 130.254 0.956174 132.219 0.956174H162.376C164.282 0.956174 164.622 1.29432 164.622 3.22409V7.20211C164.622 8.75282 164.2 9.17066 162.598 9.17066C155.518 9.14912 140.56 9.14912 140.039 9.14912V9.15127ZM170.192 28.8669V2.90534C170.192 1.27493 170.554 0.915253 172.178 0.915253H202.856C204.419 0.915253 204.82 1.31585 204.82 2.8278V7.30334C204.82 8.71621 204.419 9.13404 202.974 9.13404H181.62C180.157 9.13404 180.157 9.13404 180.157 10.5663C180.157 14.9428 180.179 19.3192 180.136 23.6978C180.136 24.5723 180.398 24.8113 181.281 24.8113C187.054 24.7726 192.849 24.7898 198.624 24.7898C200.73 24.7898 201.01 25.0698 201.01 27.0986V31.277C201.01 32.5326 200.549 33.0086 199.246 33.0086C196.199 33.0301 184.187 33.0301 181.2 33.0086C180.459 33.0086 180.138 33.1486 180.138 33.9842C180.177 38.561 180.177 43.1378 180.138 47.7124C180.138 48.5265 180.439 48.6859 181.2 48.6859C188.359 48.6687 195.496 48.6687 202.656 48.6687C204.54 48.6687 204.82 48.9465 204.82 50.8569V55.0352C204.82 56.4459 204.398 56.8853 202.994 56.8853H172.317C170.532 56.8853 170.213 56.5665 170.213 54.8155C170.192 46.1789 170.185 37.5315 170.192 28.8712V28.8669Z" fill="#58B1DC"/>
</svg>
